PathFileType	4	(X/Y/Z)	Apose_0-50.trc
DataRate	CameraRate	NumFrames	NumMarkers	Units	OrigDataRate	OrigDataStartFrame	OrigNumFrames
30	30	5	22	m	30	10	50
Frame#	Time	Hip			RHip			RKnee			RAnkle			RBigToe			RSmallToe			RHeel			LHip			LKnee			LAnkle			LBigToe			LSmallToe			LHeel			Neck			Head			Nose			RShoulder			RElbow			RWrist			LShoulder			LElbow			LWrist		
		X1	Y1	Z1	X2	Y2	Z2	X3	Y3	Z3	X4	Y4	Z4	X5	Y5	Z5	X6	Y6	Z6	X7	Y7	Z7	X8	Y8	Z8	X9	Y9	Z9	X10	Y10	Z10	X11	Y11	Z11	X12	Y12	Z12	X13	Y13	Z13	X14	Y14	Z14	X15	Y15	Z15	X16	Y16	Z16	X17	Y17	Z17	X18	Y18	Z18	X19	Y19	Z19	X20	Y20	Z20	X21	Y21	Z21	X22	Y22	Z22
11	0.3666666666666666	0.036245490694379476	0.9189510734197596	0.36135909004055505	0.02782771602301228	0.8889274149780328	0.4759256268534098	0.0036898923308287617	0.5102119983737458	0.5043970583757987	-0.008475559870001167	0.10243883210931579	0.5193997952983778	0.2024056020128101	0.042342941636059464	0.5616580375529471	0.1463009424572245	0.03931283775891973	0.6156702928187845	-0.041037389202434875	0.0384482474540795	0.5008931128219672	0.028079953206707718	0.8882885588085552	0.24973821649091701	0.01371572052414623	0.5135143611682249	0.2264326703669667	0.005386656155524585	0.11027789903014186	0.208515837546225	0.21808413419011152	0.046394109054131466	0.18219080026544313	0.16664497295854822	0.04266386990702036	0.1275481966019905	-0.030318837810593198	0.04677919658694735	0.22610481316885447	0.07419791876857706	1.5831758549298685	0.35898800814965004	0.2595791354029634	1.7471270084186437	0.3409342333113022	0.24416083259199953	1.5707939279585732	0.3259309730912805	0.029310875533776138	1.492657376387488	0.5407957911328255	0.06796377736601282	1.2389502331054345	0.722038252679504	0.12652521758018206	1.0491326522275162	0.8991857268490232	0.019176802316719005	1.4754399154537512	0.15055468153278723	0.012122409349033404	1.2221316915104685	0.0014083136018393026	0.055509692812969524	1.012946114714959	-0.14570800151346786
12	0.4	0.03557117317660974	0.9189873621565212	0.3608979189714598	0.027786375090313675	0.8884546027729031	0.4750252824393114	0.0032473369033634808	0.5096233787146289	0.5035744529040264	-0.008626192345952084	0.10290939821058476	0.5191089541889138	0.2021346258705644	0.04260650761069116	0.5615567513779285	0.14586712038841546	0.03906545406743897	0.6161251759701973	-0.04213954721200039	0.03958163046630838	0.502231117268759	0.027605051067250634	0.8879508801982969	0.24943608917264595	0.01360910294865047	0.5132148361731	0.22579363831134028	0.0053183112823275485	0.11075734513243733	0.20863072038485728	0.2186791496623032	0.04752365233197238	0.18239750040356772	0.16692056389804003	0.043797694743790465	0.12750814250256542	-0.029995086658167025	0.04714275976254629	0.22625144080288676	0.07290086871016908	1.5826312032044099	0.3581162594714617	0.259318869902094	1.7479219212524442	0.3399808576943835	0.2443006035800585	1.571132680931294	0.3260308062007263	0.028991776218258658	1.4926853245173775	0.540295580099022	0.06686512120775259	1.2393811397960248	0.7212137689550441	0.12508855191806387	1.048966913838235	0.8983020915590838	0.018816707834942385	1.475184015482504	0.14961373900107702	0.012333628501293837	1.2209944987541048	0.001168495689775897	0.058649452512012756	1.0121341587249855	-0.1448072850746701
13	0.4333333333333333	0.03505387204017689	0.9189665459249808	0.3604710901272845	0.027872219522413748	0.8875518356521696	0.4739471609783638	0.0028594116600351143	0.5088541653866205	0.5028251037028282	-0.008834764276120987	0.10343157146038356	0.5188520579923541	0.20183077912941072	0.042867820263888676	0.561583224084899	0.14542782197791537	0.03866818645732261	0.6166837702990496	-0.04415913657622137	0.04135964877723782	0.5041919978583629	0.02728276065964191	0.8872977904961443	0.24920880459781017	0.013510753938869205	0.5127684174078841	0.2251066986324377	0.005113710282740464	0.11157889592868248	0.20882575787564298	0.21912359908049833	0.04852165944413241	0.18245430754239964	0.16715144156319975	0.04491747758722412	0.12742663632206797	-0.029920267865380535	0.0477954494175028	0.22640660030209653	0.07096992724348557	1.5816446275399614	0.35708539650268534	0.2597404822238974	1.7491951886329478	0.33813202460597863	0.24440044586625223	1.5713692015758103	0.3260811402076953	0.02861301368308538	1.4925217111176547	0.5400323918759522	0.06552596313646589	1.239863264710777	0.7203266772695118	0.12408032032771994	1.0488280232038896	0.897501299084679	0.018210918889120672	1.474925570349556	0.14834613147542133	0.012853948682744648	1.2201755630091302	0.0010230858798802867	0.062083902758792414	1.0116055414110598	-0.14388477506535235
14	0.4666666666666667	0.034800174439952584	0.9189022238870206	0.3600722434670569	0.028037035750694852	0.8866160216730024	0.47297636044676467	0.0026319714032018936	0.5082260089606855	0.5023309222227085	-0.008980280922269442	0.10397457300839424	0.5186753229900994	0.20153470148929725	0.04306060620096164	0.5617463926021858	0.1450346639790622	0.03805295996145231	0.6172760601899396	-0.046488001345256755	0.043414839733692305	0.5062198190764617	0.027179732725217415	0.8865704296684219	0.24899722650605638	0.013455975129134967	0.5123089495733972	0.2244709781923181	0.0046424148915307235	0.11265610963095593	0.20907662164077812	0.21926820842170702	0.04913196991146427	0.18242615464722534	0.1672104036530218	0.045679507680435785	0.1273883908290181	-0.030211028653406552	0.04848269253453192	0.22652024523083997	0.0693060765891296	1.5808832348388786	0.35608205203884036	0.26087511746929415	1.7513186786033548	0.3353862827527202	0.24437634341138326	1.5717364414121682	0.3260011758347193	0.028197819771733492	1.4922709563627836	0.5398498553487563	0.0641616312921258	1.2402154181887082	0.7194710683281581	0.12339303710235514	1.0487667091387591	0.8967345117810828	0.01750206363805981	1.4746281987545293	0.14691159048249078	0.013699766325346498	1.2196103793645503	0.0009044685289853228	0.06567757456837593	1.011441733695561	-0.1431483216647274
15	0.5	0.03490911421501973	0.9188359360358171	0.3596645302318573	0.0282466935241476	0.8859862568598145	0.4723064273570984	0.0026405341017051946	0.5079917317216074	0.5021610062067906	-0.008977383249024928	0.10453341554867257	0.5185577787265279	0.20128547041551845	0.04313451474383405	0.5620027201026322	0.14471659438209222	0.03739458594645043	0.6177444882017423	-0.048386482377089486	0.04521939803698445	0.5077342780590085	0.027315096441872525	0.8860067079158539	0.24872149586761647	0.013510167778969377	0.5119495656153517	0.22398564537574103	0.003965345333295085	0.11381391381696376	0.2092506278131617	0.21910946990126265	0.049211204225558275	0.18232092873884453	0.1670681899829284	0.04589056320126877	0.12740680422697295	-0.03079939292315772	0.04893850713007977	0.22652885392363725	0.06886332213185448	1.5812196176232358	0.35535933539715714	0.2628068915125649	1.7543231423958083	0.3316853975854458	0.24404938296265877	1.5723591511358628	0.3257576680030302	0.027826672622074316	1.4920286832059966	0.5396224572284885	0.06297161687842749	1.2404019618832116	0.7186318370370011	0.12288736658221051	1.0488351768662325	0.8959657618076863	0.016772852492300063	1.4743254894369753	0.14550518765180795	0.014756185444771456	1.2192890507050789	0.0007493808767733895	0.0692359348393877	1.011642103735424	-0.1427766244754506
